<svg width="74" height="74" viewBox="0 0 74 74" fill="none" xmlns="http://www.w3.org/2000/svg">
<rect width="74" height="74" rx="18" fill="#FFECF0"/>
<g clip-path="url(#clip0_6_26)">
<path d="M28.7757 32.2368H32.3703V42.9005C32.3703 43.9824 33.2476 44.8585 34.3284 44.8585H39.6729C40.7536 44.8585 41.6309 43.9824 41.6309 42.9005V32.2368H45.2244C45.8197 32.2368 46.3549 31.8784 46.5838 31.3283C46.8103 30.7804 46.6843 30.147 46.2636 29.7264L38.0397 21.5014C37.4653 20.9282 36.5348 20.9282 35.9591 21.5014L27.7366 29.7264C27.5308 29.9319 27.3907 30.1938 27.334 30.4789C27.2772 30.7641 27.3063 31.0597 27.4176 31.3283C27.6463 31.8773 28.1803 32.2368 28.7757 32.2368Z" fill="#C70B2C"/>
<path d="M52.9938 36.2336C52.0194 36.2336 51.2289 37.0243 51.2289 37.9997V45.3844C51.2289 47.5966 49.428 49.3962 47.2157 49.3962H26.7841C24.5718 49.3962 22.7722 47.5966 22.7722 45.3844V37.9997C22.7722 37.0243 21.9805 36.2336 21.0061 36.2336C20.0306 36.2336 19.24 37.0243 19.24 37.9998V45.3845C19.24 49.5442 22.6242 52.9286 26.7841 52.9286H47.2157C51.3756 52.9286 54.76 49.5443 54.76 45.3845V37.9998C54.76 37.0243 53.9693 36.2336 52.9938 36.2336Z" fill="#C70B2C"/>
</g>
<defs>
<clipPath id="clip0_6_26">
<rect width="35.52" height="35.52" fill="white" transform="translate(19.24 19.24)"/>
</clipPath>
</defs>
</svg>
